<?xml version="1.0" standalone="no"?>
<!DOCTYPE svg PUBLIC "-//W3C//DTD SVG 20010904//EN"
 "http://www.w3.org/TR/2001/REC-SVG-20010904/DTD/svg10.dtd">
<svg version="1.0" xmlns="http://www.w3.org/2000/svg"
 width="484.000000pt" height="516.000000pt" viewBox="0 0 484.000000 516.000000"
 preserveAspectRatio="xMidYMid meet">

<g transform="translate(0.000000,516.000000) scale(0.100000,-0.100000)"
fill="#000000" stroke="none">
<path d="M4099 4742 c-519 -362 -1070 -844 -1808 -1582 -168 -168 -297 -294
-286 -281 11 14 28 33 38 43 21 23 22 42 1 63 -14 13 -18 14 -25 3 -6 -9 -10
-3 -15 18 -5 28 -11 33 -45 38 -41 7 -57 36 -19 36 30 0 24 19 -11 38 -50 27
-112 90 -105 108 4 10 0 14 -11 12 -10 -2 -18 3 -19 10 -3 24 -4 24 -19 12
-13 -11 -13 -15 -3 -22 10 -7 10 -9 -2 -5 -8 2 -15 13 -15 23 0 11 -28 48 -63
83 -42 43 -59 68 -53 74 7 7 15 6 25 -2 12 -10 14 -9 12 6 -2 11 -10 17 -22
15 -16 -3 -16 -2 -5 15 8 10 -5 -1 -28 -25 -25 -25 -39 -47 -35 -55 4 -6 3 -9
-1 -4 -10 9 -45 -21 -45 -40 0 -7 -4 -13 -9 -13 -14 0 -123 -175 -180 -287
-101 -203 -199 -490 -294 -868 -49 -193 -117 -512 -117 -549 0 -12 -73 -137
-163 -277 -215 -333 -335 -530 -475 -774 -114 -198 -279 -521 -271 -530 8 -7
51 52 305 421 310 450 523 752 616 873 l73 94 120 33 c460 124 957 357 1433
670 94 62 172 116 172 119 0 4 -4 3 -10 0 -5 -3 -10 -1 -10 6 0 6 8 9 19 6 25
-6 80 36 61 48 -8 5 -11 4 -6 -3 12 -19 -15 -24 -35 -6 -10 9 -20 14 -20 11
-1 -4 -2 -11 -3 -17 -1 -12 -15 -12 -36 1 -12 7 -10 8 8 9 12 0 22 3 22 8 -1
16 -28 42 -44 42 -10 0 -14 5 -11 10 3 6 1 10 -5 10 -14 0 -60 46 -60 61 0 14
-65 79 -79 79 -15 0 -81 66 -81 81 0 13 -38 49 -52 49 -4 0 -8 7 -8 15 0 8 -9
15 -21 15 -11 0 -17 5 -14 10 3 6 1 10 -5 10 -16 0 -57 44 -62 66 -3 15 -10
18 -33 16 -26 -4 -28 -2 -15 13 12 14 12 18 0 25 -16 10 -30 4 -30 -11 0 -6 4
-8 9 -5 5 4 6 -4 3 -16 -5 -19 -7 -20 -10 -5 -5 23 -17 21 -30 -5 -6 -13 -11
-18 -11 -11 -1 17 120 155 378 433 205 221 772 789 1136 1138 439 422 511 492
505 491 -3 0 -48 -31 -101 -67z m-2059 -1788 c0 -8 -4 -12 -10 -9 -5 3 -10 10
-10 16 0 5 5 9 10 9 6 0 10 -7 10 -16z m130 -218 c0 -2 -8 -10 -17 -17 -16
-13 -17 -12 -4 4 13 16 21 21 21 13z m550 -486 c0 -5 -2 -10 -4 -10 -3 0 -8 5
-11 10 -3 6 -1 10 4 10 6 0 11 -4 11 -10z"/>
<path d="M1699 3503 c-18 -20 -26 -31 -17 -24 9 7 23 9 29 5 8 -5 9 -3 5 5 -5
7 0 21 10 32 9 10 15 19 13 19 -3 0 -21 -17 -40 -37z"/>
<path d="M1784 3476 c1 -8 5 -18 8 -22 4 -3 5 1 4 10 -1 8 -5 18 -8 22 -4 3
-5 -1 -4 -10z"/>
<path d="M1840 3416 c0 -2 8 -10 18 -17 15 -13 16 -12 3 4 -13 16 -21 21 -21
13z"/>
<path d="M2113 3019 c-3 -11 -11 -18 -19 -15 -8 3 -11 0 -7 -10 4 -10 9 -12
18 -4 13 11 27 50 18 50 -3 0 -7 -9 -10 -21z"/>
<path d="M2060 2991 c0 -5 5 -13 10 -16 6 -3 10 -2 10 4 0 5 -4 13 -10 16 -5
3 -10 2 -10 -4z"/>
<path d="M2274 2848 c-3 -4 5 -5 17 -3 30 6 36 14 9 12 -12 -1 -24 -5 -26 -9z"/>
<path d="M2920 2370 c-9 -6 -10 -10 -3 -10 6 0 15 5 18 10 8 12 4 12 -15 0z"/>
<path d="M2855 2326 c-10 -14 -21 -23 -27 -20 -5 3 -4 13 4 22 12 15 11 16 -5
3 -14 -11 -15 -17 -5 -28 11 -13 14 -12 30 6 9 12 19 22 22 21 8 0 9 10 3 17
-3 2 -13 -7 -22 -21z"/>
</g>
</svg>
